<svg width="1003" height="908" viewBox="0 0 1003 908" fill="none" xmlns="http://www.w3.org/2000/svg">
<path d="M1 1138.98C90.8608 1153.14 156.343 1138.25 239.494 1082.51C445.05 947.733 193.181 537.348 381.333 367.635C552.846 212.654 731.906 471.903 926.016 363.611C1032.52 303.719 1090.41 246.324 1163 134.81" stroke="#ABD3EF"/>
<path d="M9.15125 1126.84C94.519 1140.29 164.43 1123.89 246.328 1066.45C445.283 932.721 200.363 535.537 383.006 368.851C550.069 215.842 726.081 467.87 916.077 360.803C1022.85 299.716 1081.83 237.313 1151.39 123.346" stroke="#ABD3EF"/>
<path d="M17.3047 1114.7C98.1794 1127.45 172.519 1109.54 253.164 1050.39C445.518 917.713 207.548 533.73 384.681 370.071C547.293 219.033 720.258 463.841 906.14 357.998C1013.18 295.716 1073.25 228.304 1139.78 111.884" stroke="#ABD3EF"/>
<path d="M25.457 1102.56C101.839 1114.6 180.606 1095.18 259.998 1034.32C445.752 902.701 214.732 531.919 386.355 371.287C544.517 222.221 714.434 459.808 896.202 355.19C1003.51 291.713 1064.68 219.293 1128.16 100.419" stroke="#ABD3EF"/>
<path d="M33.6083 1090.42C105.497 1101.75 188.693 1080.82 266.832 1018.26C445.985 887.688 221.914 530.108 388.028 372.502C541.74 225.407 708.609 455.774 886.264 352.382C993.835 287.709 1056.1 210.281 1116.55 88.9531" stroke="#ABD3EF"/>
<path d="M41.767 1078.28C109.163 1088.9 196.787 1066.46 273.673 1002.2C446.225 872.679 229.104 528.3 389.708 373.721C538.97 228.598 702.791 451.744 876.332 349.576C984.17 283.708 1047.53 201.272 1104.94 77.4907" stroke="#ABD3EF"/>
<path d="M49.9177 1066.14C112.82 1076.05 204.873 1052.11 280.506 986.134C446.457 857.67 236.287 526.491 391.381 374.939C536.192 231.787 696.965 447.714 866.393 346.77C974.497 279.707 1038.95 192.262 1093.33 66.0278" stroke="#ABD3EF"/>
<path d="M58.0717 1054C116.481 1063.21 212.962 1037.75 287.342 970.072C446.693 842.661 243.472 524.683 393.056 376.158C533.417 234.978 691.142 443.683 856.456 343.965C964.827 275.706 1030.37 183.253 1081.72 54.5654" stroke="#ABD3EF"/>
<path d="M66.2286 1041.86C120.145 1050.36 221.054 1023.39 294.182 954.008C446.931 827.649 250.66 522.871 394.735 377.373C530.646 238.165 685.323 439.65 846.523 341.156C955.16 271.702 1021.8 174.241 1070.11 43.0996" stroke="#ABD3EF"/>
<path d="M74.3763 1029.72C123.8 1037.51 229.137 1009.03 301.012 937.944C447.161 812.638 257.839 521.061 396.404 378.59C527.865 241.353 679.495 435.618 836.581 338.349C945.485 267.7 1013.22 165.231 1058.49 31.6357" stroke="#ABD3EF"/>
<path d="M82.5308 1017.58C127.461 1024.66 237.227 994.674 307.848 921.884C447.397 797.63 265.025 519.254 398.08 379.809C525.09 244.544 673.672 431.588 826.644 335.544C935.815 263.7 1004.64 156.222 1046.88 20.1738" stroke="#ABD3EF"/>
<path d="M90.6783 1005.44C131.116 1011.81 245.31 980.314 314.678 905.819C447.626 782.617 272.204 517.442 399.749 381.025C522.31 247.731 667.843 427.555 816.702 332.735C926.139 259.696 996.062 147.21 1035.27 8.70801" stroke="#ABD3EF"/>
<path d="M98.8344 993.303C134.779 998.966 253.401 965.958 321.517 889.758C447.864 767.608 279.391 515.634 401.427 382.243C519.537 250.921 662.023 423.525 806.768 329.93C916.471 255.695 987.488 138.201 1023.66 -2.75439" stroke="#ABD3EF"/>
<path d="M106.989 981.163C138.44 986.119 261.491 951.6 328.353 873.695C448.1 752.598 286.577 513.825 403.103 383.461C516.763 254.11 656.201 419.493 796.832 327.123C906.802 251.693 978.912 129.191 1012.05 -14.2178" stroke="#ABD3EF"/>
<path d="M115.141 969.022C142.099 973.27 269.579 937.241 335.188 857.631C448.333 737.587 293.76 512.014 404.776 384.678C513.986 257.298 650.376 415.461 786.894 324.316C897.13 247.691 970.335 120.181 1000.43 -25.6821" stroke="#ABD3EF"/>
<path d="M123.296 956.881C145.761 960.421 277.669 922.882 342.025 841.568C448.57 722.576 300.947 510.205 406.453 385.895C511.213 260.487 644.555 411.429 776.959 321.509C887.462 243.688 961.761 111.17 988.826 -37.146" stroke="#ABD3EF"/>
<path d="M131.448 944.742C149.42 947.573 285.756 908.525 348.86 825.506C448.804 707.566 308.13 508.395 408.126 387.112C508.436 263.676 638.73 407.398 767.02 318.702C877.79 239.686 953.182 102.16 977.212 -48.6099" stroke="#ABD3EF"/>
<path d="M139.601 932.604C153.08 934.728 293.844 894.169 355.695 809.445C449.038 692.558 315.314 506.588 409.801 388.332C505.66 266.867 632.907 403.368 757.083 315.897C868.119 235.686 944.606 93.1516 965.601 -60.0718" stroke="#ABD3EF"/>
<path d="M147.756 920.463C156.742 921.879 301.935 879.81 362.532 793.382C449.275 677.546 322.5 504.778 411.477 389.548C502.887 270.055 627.085 399.336 747.148 313.09C858.45 231.684 936.031 84.1407 953.991 -71.5361" stroke="#ABD3EF"/>
<path d="M155.904 908.323C160.397 909.031 310.019 865.452 369.363 777.319C449.505 662.536 329.68 502.968 413.147 390.765C500.107 273.244 621.257 395.304 737.206 310.283C848.775 227.681 927.45 75.1304 942.375 -83" stroke="#ABD3EF"/>
</svg>
