<svg width="105" height="24" xmlns="http://www.w3.org/2000/svg" fill="#ffffff">

 <g>
  <title>Layer 1</title>
  <path id="svg_1" d="m32.669,23.5048l0,-23.045l1.25,0l0,3.625a4.74,4.74 0 0 0 0.408,-0.511c1.044,-2.166 3.246,-3.533 5.65,-3.506c2.85,-0.085 5.166,0.97 6.527,3.506a11.27,11.27 0 0 1 0.272,10.331c-1.268,2.842 -4.4,4.255 -7.753,3.736a6.27,6.27 0 0 1 -5.004,-3.302l0,9.165l-1.35,0.001zm1.25,-14.893l0.28,2.706c0.494,3.08 2.315,4.9 5.174,5.242a5.88,5.88 0 0 0 6.459,-3.736c1.112,-2.65 1.03,-5.65 -0.22,-8.238a5.76,5.76 0 0 0 -6.068,-3.353a5.61,5.61 0 0 0 -5.012,4.144a28.62,28.62 0 0 0 -0.613,3.234l0,0.001zm39.498,3.132a6.74,6.74 0 0 1 -6.587,5.957c-5.242,0.264 -7.702,-3.217 -8.093,-7.234a11.59,11.59 0 0 1 1.021,-6.383a7.12,7.12 0 0 1 7.412,-3.974a6.81,6.81 0 0 1 6.042,5.183a34.97,34.97 0 0 1 0.587,3.83l-13.767,0c-0.255,3.642 1.702,6.57 4.476,7.276c3.455,0.85 6.408,-0.647 7.48,-3.932c0.238,-0.843 0.672,-0.962 1.438,-0.723l-0.009,0zm-13.395,-3.787l12.314,0c-0.077,-3.88 -2.493,-6.7 -5.77,-6.732c-3.7,-0.06 -6.383,2.647 -6.544,6.732zm15.94,3.872l1.207,0a4.84,4.84 0 0 0 2.842,4.17a7.43,7.43 0 0 0 6.451,-0.17a2.9,2.9 0 0 0 1.702,-2.851a2.63,2.63 0 0 0 -1.77,-2.63c-1.328,-0.494 -2.74,-0.766 -4.093,-1.2a30,30 0 0 1 -4.119,-1.506c-2.18,-1.064 -2.315,-5.208 0.153,-6.52a8.69,8.69 0 0 1 8.306,-0.128c1.594,0.88 2.475,2.657 2.213,4.46l-1.035,0c0,-0.05 -0.094,-0.094 -0.094,-0.145c-0.128,-3.3 -2.902,-4.332 -5.88,-4.042c-0.9,0.1 -1.753,0.372 -2.553,0.774a2.55,2.55 0 0 0 -1.48,2.553a2.55,2.55 0 0 0 1.702,2.4c1.3,0.477 2.68,0.783 4.025,1.157l3.25,0.85a3.84,3.84 0 0 1 2.638,3.464c0.26,1.745 -0.63,3.46 -2.204,4.255c-2.842,1.608 -7.523,1.183 -9.608,-0.85c-1.067,-1.073 -1.662,-2.53 -1.65,-4.042l-0.003,0.001zm28.78,-6.374l-1.132,0c0,-0.153 -0.06,-0.3 -0.077,-0.417a3.7,3.7 0 0 0 -3.013,-3.557a7.43,7.43 0 0 0 -4.774,0.23a2.9,2.9 0 0 0 -2.102,2.766a2.67,2.67 0 0 0 2.042,2.689l5.174,1.328a14.39,14.39 0 0 1 1.65,0.502c1.65,0.6 2.77,2.132 2.82,3.883a4.25,4.25 0 0 1 -2.6,4.04a9.47,9.47 0 0 1 -7.659,0.077a5.31,5.31 0 0 1 -3.2,-5.157l1.106,0c0.416,2.005 1.793,3.675 3.682,4.465s4.046,0.596 5.764,-0.516a3.04,3.04 0 0 0 1.634,-2.842a2.63,2.63 0 0 0 -1.796,-2.613c-1.328,-0.494 -2.74,-0.757 -4.093,-1.2a30.15,30.15 0 0 1 -4.144,-1.489c-2.128,-1.047 -2.298,-5.157 0.128,-6.468a8.57,8.57 0 0 1 8.442,-0.094a4.45,4.45 0 0 1 2.136,4.366l0.012,0.007zm-74.13,11.83a1.95,1.95 0 0 1 -2.417,-0.919l-4.4,-6.085l-0.638,-0.85l-5.106,6.944a1.87,1.87 0 0 1 -2.298,0.902l6.578,-8.825l-6.12,-7.974c0.908,-0.328 1.92,0.028 2.425,0.85l4.56,6.16l4.587,-6.136a1.83,1.83 0 0 1 2.281,-0.851l-2.375,3.151l-3.217,4.187a0.85,0.85 0 0 0 0,1.268l6.127,8.178l0.013,0zm27.93,-16.892l0,1.2a6.17,6.17 0 0 0 -6.57,6.374q0,4.204 0,8.408l0,0.953l-1.217,0l0,-16.86l1.2,0l0,3.455c1.472,-2.52 3.744,-3.455 6.595,-3.523l-0.008,-0.007zm-58.54,7.949l0.536,-2.647c1.472,-5.234 7.472,-7.412 11.6,-4.17c2.417,1.898 3.02,4.587 2.902,7.617l-13.617,0c-0.22,5.412 3.685,8.68 8.68,7.012c1.646,-0.6 2.885,-1.968 3.293,-3.668c0.264,-0.85 0.7,-0.996 1.498,-0.75a6.91,6.91 0 0 1 -3.302,5.047a8,8 0 0 1 -9.319,-1.191c-1.216,-1.367 -1.95,-3.095 -2.093,-4.92c0,-0.3 -0.1,-0.58 -0.17,-0.85q-0.01,-0.757 -0.01,-1.48l0.002,0zm1.438,-0.366l12.314,0c-0.077,-3.923 -2.553,-6.706 -5.855,-6.732c-3.676,-0.05 -6.306,2.672 -6.468,6.715l0.009,0.017z"/>
 </g>
</svg>