<svg width="128" height="128" xmlns="http://www.w3.org/2000/svg">

 <g>
  <title>Layer 1</title>
  <g id="svg_1" fill="#FFFFFF">
   <path id="svg_2" d="m64,1.512c-23.493,0 -42.545,19.047 -42.545,42.545c0,18.797 12.19,34.745 29.095,40.37c2.126,0.394 2.907,-0.923 2.907,-2.047c0,-1.014 -0.04,-4.366 -0.058,-7.92c-11.837,2.573 -14.334,-5.02 -14.334,-5.02c-1.935,-4.918 -4.724,-6.226 -4.724,-6.226c-3.86,-2.64 0.29,-2.586 0.29,-2.586c4.273,0.3 6.523,4.385 6.523,4.385c3.794,6.504 9.953,4.623 12.38,3.536c0.383,-2.75 1.485,-4.628 2.702,-5.69c-9.45,-1.075 -19.384,-4.724 -19.384,-21.026c0,-4.645 1.662,-8.44 4.384,-11.42c-0.442,-1.072 -1.898,-5.4 0.412,-11.26c0,0 3.572,-1.142 11.7,4.363c3.395,-0.943 7.035,-1.416 10.65,-1.432c3.616,0.017 7.258,0.49 10.658,1.432c8.12,-5.504 11.688,-4.362 11.688,-4.362c2.316,5.86 0.86,10.187 0.418,11.26c2.728,2.978 4.378,6.774 4.378,11.42c0,16.34 -9.953,19.938 -19.427,20.99c1.526,1.32 2.886,3.91 2.886,7.88c0,5.692 -0.048,10.273 -0.048,11.674c0,1.13 0.766,2.458 2.922,2.04c16.896,-5.632 29.07,-21.574 29.07,-40.365c0.002,-23.493 -19.046,-42.541 -42.543,-42.541z" clip-rule="evenodd" fill-rule="evenodd"/>
   <path id="svg_3" d="m37.57,62.596c-0.095,0.212 -0.428,0.275 -0.73,0.13c-0.31,-0.14 -0.482,-0.427 -0.382,-0.64c0.09,-0.216 0.424,-0.277 0.733,-0.132c0.31,0.14 0.486,0.43 0.38,0.642l-0.001,0zm-0.524,-0.388m2.247,2.312c-0.203,0.187 -0.6,0.1 -0.87,-0.198c-0.278,-0.297 -0.33,-0.694 -0.124,-0.884c0.208,-0.188 0.593,-0.1 0.87,0.197c0.28,0.3 0.335,0.693 0.123,0.884l0.001,0.001zm-0.406,-0.437m2.083,2.885c-0.26,0.182 -0.687,0.012 -0.95,-0.367c-0.262,-0.377 -0.262,-0.83 0.005,-1.013c0.264,-0.182 0.684,-0.018 0.95,0.357c0.262,0.385 0.262,0.84 -0.005,1.024l0,-0.001zm0,0m2.298,2.368c-0.233,0.257 -0.73,0.188 -1.093,-0.163c-0.372,-0.343 -0.475,-0.83 -0.242,-1.087c0.237,-0.257 0.736,-0.185 1.102,0.163c0.37,0.342 0.482,0.83 0.233,1.086l0,0.001zm0,0m3.172,1.374c-0.104,0.334 -0.582,0.485 -1.064,0.344c-0.482,-0.146 -0.796,-0.536 -0.7,-0.872c0.1,-0.336 0.582,-0.493 1.067,-0.342c0.48,0.144 0.795,0.53 0.696,0.87l0.001,0zm0,0m3.48,0.255c0.013,0.35 -0.396,0.642 -0.902,0.648c-0.508,0.012 -0.92,-0.272 -0.926,-0.618c0,-0.354 0.4,-0.642 0.908,-0.65c0.506,-0.01 0.92,0.272 0.92,0.62zm0,0m3.24,-0.551c0.06,0.342 -0.29,0.694 -0.793,0.787c-0.494,0.092 -0.95,-0.12 -1.014,-0.46c-0.06,-0.35 0.297,-0.7 0.79,-0.792c0.503,-0.088 0.953,0.118 1.017,0.466l0,-0.001zm0,0"/>
  </g>
  <g id="svg_4" fill="#FFFFFF">
   <path id="svg_5" d="m24.855,108.302l-10.7,0a0.5,0.5 0 0 0 -0.5,0.5l0,5.232a0.5,0.5 0 0 0 0.5,0.5l4.173,0l0,6.5s-0.937,0.32 -3.53,0.32c-3.056,0 -7.327,-1.116 -7.327,-10.508c0,-9.393 4.448,-10.63 8.624,-10.63c3.614,0 5.17,0.636 6.162,0.943c0.31,0.094 0.6,-0.216 0.6,-0.492l1.193,-5.055a0.468,0.468 0 0 0 -0.192,-0.39c-0.403,-0.288 -2.857,-1.66 -9.058,-1.66c-7.144,0 -14.472,3.038 -14.472,17.65c0,14.61 8.39,16.787 15.46,16.787c5.854,0 9.405,-2.502 9.405,-2.502c0.146,-0.08 0.162,-0.285 0.162,-0.38l0,-16.316a0.5,0.5 0 0 0 -0.5,-0.5l0,0.001zm54.651,-13.492l-6.026,0a0.5,0.5 0 0 0 -0.498,0.503l0.002,11.644l-9.392,0l0,-11.644a0.5,0.5 0 0 0 -0.497,-0.503l-6.025,0a0.5,0.5 0 0 0 -0.498,0.503l0,31.53c0,0.277 0.224,0.503 0.498,0.503l6.025,0a0.5,0.5 0 0 0 0.497,-0.504l0,-13.486l9.392,0l-0.016,13.486c0,0.278 0.224,0.504 0.5,0.504l6.038,0a0.5,0.5 0 0 0 0.497,-0.504l0,-31.53c0,-0.278 -0.22,-0.502 -0.497,-0.502zm-47.166,0.717c-2.144,0 -3.884,1.753 -3.884,3.923c0,2.167 1.74,3.925 3.884,3.925c2.146,0 3.885,-1.758 3.885,-3.925c0,-2.17 -1.74,-3.923 -3.885,-3.923zm2.956,9.608l-6.006,0c-0.276,0 -0.522,0.284 -0.522,0.56l0,20.852c0,0.613 0.382,0.795 0.876,0.795l5.41,0c0.595,0 0.74,-0.292 0.74,-0.805l0,-6.346l0,-14.553a0.5,0.5 0 0 0 -0.498,-0.502l0,-0.001zm67.606,0.047l-5.98,0a0.5,0.5 0 0 0 -0.496,0.504l0,15.46s-1.52,1.11 -3.675,1.11s-2.727,-0.977 -2.727,-3.088l0,-13.482a0.5,0.5 0 0 0 -0.497,-0.504l-6.068,0a0.502,0.502 0 0 0 -0.498,0.504l0,14.502c0,6.27 3.495,7.804 8.302,7.804c3.944,0 7.124,-2.18 7.124,-2.18s0.15,1.15 0.22,1.285c0.07,0.136 0.247,0.273 0.44,0.273l3.86,-0.017a0.502,0.502 0 0 0 0.5,-0.504l-0.003,-21.166a0.504,0.504 0 0 0 -0.5,-0.502l-0.002,0.001zm16.342,-0.708c-3.396,0 -5.706,1.515 -5.706,1.515l0,-10.677a0.5,0.5 0 0 0 -0.497,-0.503l-6.041,0a0.5,0.5 0 0 0 -0.5,0.503l0,31.53a0.5,0.5 0 0 0 0.5,0.503l4.192,0c0.19,0 0.332,-0.097 0.437,-0.268c0.103,-0.17 0.254,-1.454 0.254,-1.454s2.47,2.34 7.148,2.34c5.49,0 8.64,-2.784 8.64,-12.502s-5.03,-10.988 -8.428,-10.988l0.001,0.001zm-2.36,17.764c-2.073,-0.063 -3.48,-1.004 -3.48,-1.004l0,-9.985s1.388,-0.85 3.09,-1.004c2.153,-0.193 4.228,0.458 4.228,5.594c0,5.417 -0.935,6.486 -3.837,6.398l-0.001,0.001zm-63.689,-0.118c-0.263,0 -0.937,0.107 -1.63,0.107c-2.22,0 -2.973,-1.032 -2.973,-2.368l0,-8.866l4.52,0a0.5,0.5 0 0 0 0.5,-0.504l0,-4.856a0.5,0.5 0 0 0 -0.5,-0.502l-4.52,0l-0.007,-5.97c0,-0.227 -0.116,-0.34 -0.378,-0.34l-6.16,0c-0.238,0 -0.367,0.106 -0.367,0.335l0,6.17s-3.087,0.745 -3.295,0.805a0.5,0.5 0 0 0 -0.36,0.48l0,3.877a0.5,0.5 0 0 0 0.497,0.503l3.158,0l0,9.328c0,6.93 4.86,7.61 8.14,7.61c1.497,0 3.29,-0.48 3.586,-0.59c0.18,-0.067 0.283,-0.252 0.283,-0.453l0.004,-4.265a0.51,0.51 0 0 0 -0.5,-0.502l0.002,0.001z"/>
  </g>
 </g>
</svg>