<?xml version="1.0" encoding="utf-8"?>
<!-- Generator: Adobe Illustrator 19.2.1, SVG Export Plug-In . SVG Version: 6.00 Build 0)  -->
<svg version="1.1" id="layer" xmlns="http://www.w3.org/2000/svg" xmlns:xlink="http://www.w3.org/1999/xlink" x="0px" y="0px"
	 viewBox="0 0 652 652" style="enable-background:new 0 0 652 652;" xml:space="preserve">
<style type="text/css">
	.st0{fill-rule:evenodd;clip-rule:evenodd;fill:#1D1C39;}
	.st1{fill-rule:evenodd;clip-rule:evenodd;fill:#FF22B1;}
</style>
<path class="st0" d="M53.1,315.7c4.6,0,7.3-2.5,7.3-6.9c0-4.2-2.9-6.9-7.1-6.9H42.8v-7.8c0-5.6-4-8.6-8-8.6c-4,0-8,2.9-8,8.6v53.6
	c0,12.9,5.1,18.6,16.6,18.6c6.2,0,9.8-1.6,12.5-3.2c2-1.1,2.8-3.5,2.8-5.4c0-3.4-2.3-7.3-5.6-7.3c-0.7,0-1.4,0.2-2,0.5
	c-0.9,0.4-2.1,0.9-3.8,0.9c-2.1,0-4.4-0.7-4.4-6.4v-29.8L53.1,315.7L53.1,315.7z M53.1,315.7 M90.1,313.6c2-0.7,4-1.1,6-1.1
	c6.7,0,11.3,4.3,13.6,8.6l-29.8,10.9C78.6,325.4,80.4,317.1,90.1,313.6 M122.2,343.3c-1.7,0-3.3,0.6-4.5,1.7l-0.2,0.2
	c-2.9,2.5-6.2,4.5-9.8,5.7c-2.6,1-5.4,1.5-8.3,1.6c-6.9,0-12.7-3.7-15.7-9.9l36.8-13.4c5.8-2.1,6.6-6.4,5.4-9.7
	c-4.5-12.3-15.1-20-27.6-20c-4.1,0-8.3,0.8-12.6,2.4c-9.4,3.4-16.1,9.6-19.4,17.9c-3,7.5-2.9,16.3,0.2,24.8
	c5,13.8,15.7,21.7,29.3,21.7c2.7,0,5.4-0.3,8-0.9c2.4-0.5,4.8-1.2,7.1-2c6.1-2.2,11.8-5.5,16.2-9.3l0,0l0,0c1.5-1.6,2.1-3.7,1.7-5.6
	C127.9,345.5,125.2,343.3,122.2,343.3 M183.9,333.1c0,9.4-5.3,18.8-17.2,18.8c-10.2,0-17-7.5-17-18.7c0-11.4,6.9-19,17.2-19
	C175.3,314.3,183.9,320.1,183.9,333.1 M192.2,299.9c-4.7,0-8.2,3.4-8.2,8v0.2c-4.7-5.3-11.7-8.3-19.9-8.3
	c-18.6,0-31.1,13.3-31.1,33.2c0,19.9,12.3,33.2,30.5,33.2c9,0,16.2-3.3,20.8-9.2v1.2c0,5.9,4,8,7.8,8c4.7,0,7.6-3.1,7.6-8v-50.4
	C199.9,303.1,196.9,299.9,192.2,299.9 M284.2,299.9c16.7,0,25.1,10.2,25.1,30.3v27.9c0,5.2-3,8.2-8.2,8.2c-5.2,0-8-2.9-8-8.2v-27.9
	c0-11.7-3.6-16.7-12-16.7c-8.9,0-13.3,5.4-13.3,16.7v27.9c0,5.2-3,8.2-8.2,8.2c-5.2,0-8-2.9-8-8.2v-28.3c0-11.6-3.5-16.3-12-16.3
	c-8.7,0-13.1,5-13.1,14.9v29.9c0,5-3.1,8-8.2,8c-5.2,0-8-2.8-8-8v-50.1c0-5.8,4.1-8.4,8.2-8.4c4.6,0,7.9,3.1,8,7.4
	c3.7-4.6,10-7.4,17-7.4c9.5,0,16.4,4,20.3,11.5C267.5,304.1,274.8,299.9,284.2,299.9 M406.9,299.9c4,0,6.9,3.2,6.9,7.5
	c0,1.5-0.4,3.1-1.2,4.8l-18.2,47c-1.9,4.8-5,7.2-9.2,7.2c-4.4,0-7.4-2.4-9-7.2l-12.1-33.8l-12.4,33.8c-1.2,3.3-3.3,7.2-8.9,7.2
	c-5.1,0-7.3-2.9-9-7.2l-18.4-46.8c-0.8-2-1.2-3.5-1.2-5c0-4.7,3.5-7.5,6.9-7.5c3.5,0,6.5,2.6,8,6.8l13.7,38.6l13.5-38.4
	c1.5-4.6,3.2-7,7.8-7c4.3,0,6.1,2.8,7.6,7l13.5,38.4l13.7-38.6C400.4,302.5,403.4,299.9,406.9,299.9 M448.1,353.6
	c-10.6,0-17.2-7.8-17.2-20.5c0-12.2,6.8-20.1,17.2-20.1c10.5,0,17.2,7.9,17.2,20.1C465.3,345.6,458.5,353.6,448.1,353.6
	 M448.1,300.1c-10.5,0-19.2,3.4-25.1,10c-5.3,5.9-8.3,14-8.3,23.1c0,9,2.9,17.3,8.3,23.2c5.9,6.6,14.7,10.1,25.1,10.1
	c24.6,0,33.4-17.9,33.4-33.2C481.5,317.9,472.7,300.1,448.1,300.1 M520.6,299.9c5.5,0,9.1,2.9,9.1,7.5c0,4.2-2.6,7.1-6.4,7.1
	c-1,0-1.7-0.2-2.4-0.3c-0.8-0.2-1.7-0.4-3.2-0.4c-9.3,0-13.3,6.2-13.3,20.7v23.9c0,5.3-4,8-8,8c-4,0-8-2.7-8-8v-50.4
	c0-4.5,3.5-8,8-8c4.2,0,7.6,3.2,8,7.3C508.4,302.6,514.4,299.9,520.6,299.9 M566.6,333.3l17.5-18.2c2.4-2.4,4.7-4.7,4.7-7.9
	c0-4.2-3.1-7.3-7.3-7.3c-3.2,0-5.5,2.5-7.8,4.9l-21.1,21.8v-33.1c0-4.4-3.6-8-8-8c-4.4,0-8,3.6-8,8v64.8c0,4.4,3.6,8,8,8
	c4.4,0,8-3.6,8-8v-19.6l21.2,22c0.4,0.4,0.7,0.7,1.1,1.1c2.1,2.2,4.3,4.5,7.6,4.5c3.8,0,7.1-3.2,7.1-7.1c0-2.8-1.9-4.9-3.8-6.9
	L566.6,333.3L566.6,333.3z M566.6,333.3"/>
<path class="st1" d="M612.8,338.3c-7.7,0-14,6.3-14,14c0,7.8,6.3,14,14,14c7.8,0,14-6.3,14-14C626.8,344.6,620.5,338.3,612.8,338.3"
	/>
</svg>
